<?xml version="1.0" encoding="UTF-8" standalone="no"?>
<svg _ngcontent-vnh-c7="" aria-hidden="true" class="material-logo-svg" viewBox="0 0 96 96" xmlns="http://www.w3.org/2000/svg"><defs _ngcontent-vnh-c7=""><style _ngcontent-vnh-c7="">.cls-1{fill:#fff;}</style></defs><title _ngcontent-vnh-c7="">material_light</title><path _ngcontent-vnh-c7="" class="cls-1" d="M48,0A48,48,0,1,0,96,48,48,48,0,0,0,48,0ZM18,22,46,78H18Zm2.47-4H75.53L48,73.06ZM78,22V78H50Zm4-1.9a43.92,43.92,0,0,1,0,55.8ZM75.9,14H20.1a43.92,43.92,0,0,1,55.8,0ZM14,20.1V75.9a43.92,43.92,0,0,1,0-55.8ZM20.1,82H75.9a43.92,43.92,0,0,1-55.8,0Z"></path></svg>